<svg xmlns="http://www.w3.org/2000/svg" width="1100" height="809" viewBox="0 0 1100 809" role="img"><title>RISE public post feedback</title><rect width="1100" height="809" rx="24" fill="#f5f1e9"/><g font-family="Arial, sans-serif"><text x="38" y="70" font-size="27" fill="#191b1b" >Visibility is evidence to inspect, not a proof of lift.</text><text x="300" y="133" font-size="15" fill="#454a48" >Views</text><text x="446" y="133" font-size="15" fill="#454a48" >Replies</text><text x="592" y="133" font-size="15" fill="#454a48" >Likes</text><text x="738" y="133" font-size="15" fill="#454a48" >Reposts</text><text x="884" y="133" font-size="15" fill="#454a48" >Bookmarks</text><text x="38" y="185" font-size="16" fill="#191b1b" >Prompt experiment</text><text x="300" y="185" font-size="24" fill="#b73825" >117</text><text x="446" y="185" font-size="24" fill="#b73825" >1</text><text x="592" y="185" font-size="24" fill="#b73825" >2</text><text x="738" y="185" font-size="24" fill="#b73825" >0</text><text x="884" y="185" font-size="24" fill="#b73825" >0</text><text x="38" y="209" font-size="11" fill="#636660" >2026-10-07T21:03:15.192Z</text><text x="38" y="253" font-size="16" fill="#191b1b" >Launch post</text><text x="300" y="253" font-size="24" fill="#b73825" >544</text><text x="446" y="253" font-size="24" fill="#b73825" >4</text><text x="592" y="253" font-size="24" fill="#b73825" >1</text><text x="738" y="253" font-size="24" fill="#b73825" >1</text><text x="884" y="253" font-size="24" fill="#b73825" >N/A</text><text x="38" y="277" font-size="11" fill="#636660" >2026-10-07T23:39:44.338Z</text><text x="38" y="321" font-size="16" fill="#191b1b" >reach_recovery_original</text><text x="300" y="321" font-size="24" fill="#b73825" >42</text><text x="446" y="321" font-size="24" fill="#b73825" >1</text><text x="592" y="321" font-size="24" fill="#b73825" >0</text><text x="738" y="321" font-size="24" fill="#b73825" >0</text><text x="884" y="321" font-size="24" fill="#b73825" >N/A</text><text x="38" y="345" font-size="11" fill="#636660" >2026-10-07T23:39:44.338Z</text><text x="38" y="389" font-size="16" fill="#191b1b" >technical_original</text><text x="300" y="389" font-size="24" fill="#b73825" >4</text><text x="446" y="389" font-size="24" fill="#b73825" >0</text><text x="592" y="389" font-size="24" fill="#b73825" >0</text><text x="738" y="389" font-size="24" fill="#b73825" >0</text><text x="884" y="389" font-size="24" fill="#b73825" >N/A</text><text x="38" y="413" font-size="11" fill="#636660" >2026-10-07T23:39:44.338Z</text><text x="38" y="457" font-size="16" fill="#191b1b" >annotation_method_reply</text><text x="300" y="457" font-size="24" fill="#b73825" >1</text><text x="446" y="457" font-size="24" fill="#b73825" >N/A</text><text x="592" y="457" font-size="24" fill="#b73825" >N/A</text><text x="738" y="457" font-size="24" fill="#b73825" >N/A</text><text x="884" y="457" font-size="24" fill="#b73825" >N/A</text><text x="38" y="481" font-size="11" fill="#636660" >2026-10-07T23:29:38.361Z</text><text x="38" y="525" font-size="16" fill="#191b1b" >context_handoff_reply</text><text x="300" y="525" font-size="24" fill="#b73825" >4</text><text x="446" y="525" font-size="24" fill="#b73825" >0</text><text x="592" y="525" font-size="24" fill="#b73825" >0</text><text x="738" y="525" font-size="24" fill="#b73825" >0</text><text x="884" y="525" font-size="24" fill="#b73825" >0</text><text x="38" y="549" font-size="11" fill="#636660" >2026-10-07T23:39:11.946Z</text><text x="38" y="593" font-size="16" fill="#191b1b" >technical_original_edited_version</text><text x="300" y="593" font-size="24" fill="#b73825" >N/A</text><text x="446" y="593" font-size="24" fill="#b73825" >0</text><text x="592" y="593" font-size="24" fill="#b73825" >0</text><text x="738" y="593" font-size="24" fill="#b73825" >0</text><text x="884" y="593" font-size="24" fill="#b73825" >0</text><text x="38" y="617" font-size="11" fill="#636660" >2026-10-07T23:42:00.225Z</text><text x="38" y="661" font-size="16" fill="#191b1b" >workflow_cost_reply</text><text x="300" y="661" font-size="24" fill="#b73825" >N/A</text><text x="446" y="661" font-size="24" fill="#b73825" >0</text><text x="592" y="661" font-size="24" fill="#b73825" >0</text><text x="738" y="661" font-size="24" fill="#b73825" >0</text><text x="884" y="661" font-size="24" fill="#b73825" >0</text><text x="38" y="685" font-size="11" fill="#636660" >2026-10-07T23:45:44.536Z</text><text x="38" y="749" font-size="14" fill="#8b5520" >Public counters can include the account owner; independent endorsements are unknown.</text><text x="38" y="777" font-size="14" fill="#454a48" >Each row retains its own X observation time; GitHub refreshes do not update it.</text></g></svg>
