<svg xmlns="http://www.w3.org/2000/svg" width="1100" height="3177" viewBox="0 0 1100 3177" role="img"><title>RISE public post feedback</title><rect width="1100" height="3177" rx="24" fill="#f5f1e9"/><g font-family="Arial, sans-serif"><text x="38" y="70" font-size="27" fill="#191b1b" >Visibility is evidence to inspect, not a proof of lift.</text><text x="300" y="133" font-size="15" fill="#454a48" >Views</text><text x="446" y="133" font-size="15" fill="#454a48" >Replies</text><text x="592" y="133" font-size="15" fill="#454a48" >Likes</text><text x="738" y="133" font-size="15" fill="#454a48" >Reposts</text><text x="884" y="133" font-size="15" fill="#454a48" >Bookmarks</text><svg x="38" y="166" width="244" height="43" viewBox="0 0 244 43" overflow="hidden"><title>Prompt experiment [initial_prompt]</title><text x="0" y="19" font-size="16" fill="#191b1b" >Prompt experiment</text></svg><text x="300" y="185" font-size="24" fill="#b73825" >117</text><text x="446" y="185" font-size="24" fill="#b73825" >1</text><text x="592" y="185" font-size="24" fill="#b73825" >2</text><text x="738" y="185" font-size="24" fill="#b73825" >0</text><text x="884" y="185" font-size="24" fill="#b73825" >0</text><text x="38" y="209" font-size="11" fill="#636660" >2026-10-07T21:03:15.192Z</text><svg x="38" y="234" width="244" height="43" viewBox="0 0 244 43" overflow="hidden"><title>Launch post [launch]</title><text x="0" y="19" font-size="16" fill="#191b1b" >Launch post</text></svg><text x="300" y="253" font-size="24" fill="#b73825" >714</text><text x="446" y="253" font-size="24" fill="#b73825" >10</text><text x="592" y="253" font-size="24" fill="#b73825" >2</text><text x="738" y="253" font-size="24" fill="#b73825" >1</text><text x="884" y="253" font-size="24" fill="#b73825" >N/A</text><text x="38" y="277" font-size="11" fill="#636660" >2026-10-08T06:41:37.720Z</text><svg x="38" y="302" width="244" height="43" viewBox="0 0 244 43" overflow="hidden"><title>Reach experiment [reach_recovery_original]</title><text x="0" y="19" font-size="16" fill="#191b1b" >Reach experiment</text></svg><text x="300" y="321" font-size="24" fill="#b73825" >50</text><text x="446" y="321" font-size="24" fill="#b73825" >1</text><text x="592" y="321" font-size="24" fill="#b73825" >0</text><text x="738" y="321" font-size="24" fill="#b73825" >0</text><text x="884" y="321" font-size="24" fill="#b73825" >N/A</text><text x="38" y="345" font-size="11" fill="#636660" >2026-10-08T01:15:14.382Z</text><svg x="38" y="370" width="244" height="43" viewBox="0 0 244 43" overflow="hidden"><title>Technical original [technical_original]</title><text x="0" y="19" font-size="16" fill="#191b1b" >Technical original</text></svg><text x="300" y="389" font-size="24" fill="#b73825" >4</text><text x="446" y="389" font-size="24" fill="#b73825" >0</text><text x="592" y="389" font-size="24" fill="#b73825" >0</text><text x="738" y="389" font-size="24" fill="#b73825" >0</text><text x="884" y="389" font-size="24" fill="#b73825" >N/A</text><text x="38" y="413" font-size="11" fill="#636660" >2026-10-07T23:39:44.338Z</text><svg x="38" y="438" width="244" height="43" viewBox="0 0 244 43" overflow="hidden"><title>Annotation-method reply [annotation_method_reply]</title><text x="0" y="19" font-size="16" fill="#191b1b" >Annotation-method reply</text></svg><text x="300" y="457" font-size="24" fill="#b73825" >9</text><text x="446" y="457" font-size="24" fill="#b73825" >1</text><text x="592" y="457" font-size="24" fill="#b73825" >0</text><text x="738" y="457" font-size="24" fill="#b73825" >0</text><text x="884" y="457" font-size="24" fill="#b73825" >N/A</text><text x="38" y="481" font-size="11" fill="#636660" >2026-10-07T23:55:54.637Z</text><svg x="38" y="506" width="244" height="43" viewBox="0 0 244 43" overflow="hidden"><title>Context-handoff reply [context_handoff_reply]</title><text x="0" y="19" font-size="16" fill="#191b1b" >Context-handoff reply</text></svg><text x="300" y="525" font-size="24" fill="#b73825" >4</text><text x="446" y="525" font-size="24" fill="#b73825" >0</text><text x="592" y="525" font-size="24" fill="#b73825" >0</text><text x="738" y="525" font-size="24" fill="#b73825" >0</text><text x="884" y="525" font-size="24" fill="#b73825" >0</text><text x="38" y="549" font-size="11" fill="#636660" >2026-10-07T23:39:11.946Z</text><svg x="38" y="574" width="244" height="43" viewBox="0 0 244 43" overflow="hidden"><title>Technical original (edited) [technical_original_edited_version]</title><text x="0" y="19" font-size="16" fill="#191b1b" >Technical original (edited)</text></svg><text x="300" y="593" font-size="24" fill="#b73825" >18</text><text x="446" y="593" font-size="24" fill="#b73825" >1</text><text x="592" y="593" font-size="24" fill="#b73825" >0</text><text x="738" y="593" font-size="24" fill="#b73825" >0</text><text x="884" y="593" font-size="24" fill="#b73825" >N/A</text><text x="38" y="617" font-size="11" fill="#636660" >2026-10-08T01:15:14.382Z</text><svg x="38" y="642" width="244" height="43" viewBox="0 0 244 43" overflow="hidden"><title>Workflow-cost reply [workflow_cost_reply]</title><text x="0" y="19" font-size="16" fill="#191b1b" >Workflow-cost reply</text></svg><text x="300" y="661" font-size="24" fill="#b73825" >N/A</text><text x="446" y="661" font-size="24" fill="#b73825" >0</text><text x="592" y="661" font-size="24" fill="#b73825" >0</text><text x="738" y="661" font-size="24" fill="#b73825" >0</text><text x="884" y="661" font-size="24" fill="#b73825" >0</text><text x="38" y="685" font-size="11" fill="#636660" >2026-10-07T23:45:44.536Z</text><svg x="38" y="710" width="244" height="43" viewBox="0 0 244 43" overflow="hidden"><title>Labeling follow-up [labeling_feedback_followup]</title><text x="0" y="19" font-size="16" fill="#191b1b" >Labeling follow-up</text></svg><text x="300" y="729" font-size="24" fill="#b73825" >1</text><text x="446" y="729" font-size="24" fill="#b73825" >0</text><text x="592" y="729" font-size="24" fill="#b73825" >0</text><text x="738" y="729" font-size="24" fill="#b73825" >0</text><text x="884" y="729" font-size="24" fill="#b73825" >0</text><text x="38" y="753" font-size="11" fill="#636660" >2026-10-07T23:56:35.887Z</text><svg x="38" y="778" width="244" height="43" viewBox="0 0 244 43" overflow="hidden"><title>Git follow-up [git_feedback_followup]</title><text x="0" y="19" font-size="16" fill="#191b1b" >Git follow-up</text></svg><text x="300" y="797" font-size="24" fill="#b73825" >5</text><text x="446" y="797" font-size="24" fill="#b73825" >0</text><text x="592" y="797" font-size="24" fill="#b73825" >0</text><text x="738" y="797" font-size="24" fill="#b73825" >0</text><text x="884" y="797" font-size="24" fill="#b73825" >N/A</text><text x="38" y="821" font-size="11" fill="#636660" >2026-10-08T00:26:32.579Z</text><svg x="38" y="846" width="244" height="43" viewBox="0 0 244 43" overflow="hidden"><title>Cohort progress reply [cohort_progress_reply]</title><text x="0" y="19" font-size="16" fill="#191b1b" >Cohort progress reply</text></svg><text x="300" y="865" font-size="24" fill="#b73825" >1</text><text x="446" y="865" font-size="24" fill="#b73825" >0</text><text x="592" y="865" font-size="24" fill="#b73825" >0</text><text x="738" y="865" font-size="24" fill="#b73825" >0</text><text x="884" y="865" font-size="24" fill="#b73825" >0</text><text x="38" y="889" font-size="11" fill="#636660" >2026-10-08T00:17:42.990Z</text><svg x="38" y="914" width="244" height="43" viewBox="0 0 244 43" overflow="hidden"><title>Git matrix original [git_matrix_original]</title><text x="0" y="19" font-size="16" fill="#191b1b" >Git matrix original</text></svg><text x="300" y="933" font-size="24" fill="#b73825" >12</text><text x="446" y="933" font-size="24" fill="#b73825" >0</text><text x="592" y="933" font-size="24" fill="#b73825" >0</text><text x="738" y="933" font-size="24" fill="#b73825" >0</text><text x="884" y="933" font-size="24" fill="#b73825" >0</text><text x="38" y="957" font-size="11" fill="#636660" >2026-10-08T01:40:26.635Z</text><svg x="38" y="982" width="244" height="43" viewBox="0 0 244 43" overflow="hidden"><title>Temporal-label follow-up [annotation_temporal_feedback_followup]</title><text x="0" y="19" font-size="16" fill="#191b1b" >Temporal-label follow-up</text></svg><text x="300" y="1001" font-size="24" fill="#b73825" >N/A</text><text x="446" y="1001" font-size="24" fill="#b73825" >0</text><text x="592" y="1001" font-size="24" fill="#b73825" >0</text><text x="738" y="1001" font-size="24" fill="#b73825" >0</text><text x="884" y="1001" font-size="24" fill="#b73825" >0</text><text x="38" y="1025" font-size="11" fill="#636660" >2026-10-08T00:43:41.743Z</text><svg x="38" y="1050" width="244" height="43" viewBox="0 0 244 43" overflow="hidden"><title>Fact-grounding reply [fact_grounding_reply]</title><text x="0" y="19" font-size="16" fill="#191b1b" >Fact-grounding reply</text></svg><text x="300" y="1069" font-size="24" fill="#b73825" >14</text><text x="446" y="1069" font-size="24" fill="#b73825" >1</text><text x="592" y="1069" font-size="24" fill="#b73825" >1</text><text x="738" y="1069" font-size="24" fill="#b73825" >0</text><text x="884" y="1069" font-size="24" fill="#b73825" >N/A</text><text x="38" y="1093" font-size="11" fill="#636660" >2026-10-08T01:17:53.979Z</text><svg x="38" y="1118" width="244" height="43" viewBox="0 0 244 43" overflow="hidden"><title>Matrix progress reply [matrix_progress_reply]</title><text x="0" y="19" font-size="16" fill="#191b1b" >Matrix progress reply</text></svg><text x="300" y="1137" font-size="24" fill="#b73825" >1</text><text x="446" y="1137" font-size="24" fill="#b73825" >0</text><text x="592" y="1137" font-size="24" fill="#b73825" >0</text><text x="738" y="1137" font-size="24" fill="#b73825" >0</text><text x="884" y="1137" font-size="24" fill="#b73825" >0</text><text x="38" y="1161" font-size="11" fill="#636660" >2026-10-08T01:19:35.998Z</text><svg x="38" y="1186" width="244" height="43" viewBox="0 0 244 43" overflow="hidden"><title>Occlusion-method reply [occlusion_research_reply]</title><text x="0" y="19" font-size="16" fill="#191b1b" >Occlusion-method reply</text></svg><text x="300" y="1205" font-size="24" fill="#b73825" >1</text><text x="446" y="1205" font-size="24" fill="#b73825" >0</text><text x="592" y="1205" font-size="24" fill="#b73825" >0</text><text x="738" y="1205" font-size="24" fill="#b73825" >0</text><text x="884" y="1205" font-size="24" fill="#b73825" >0</text><text x="38" y="1229" font-size="11" fill="#636660" >2026-10-08T01:21:42.749Z</text><svg x="38" y="1254" width="244" height="43" viewBox="0 0 244 43" overflow="hidden"><title>Scoped-review reply [scoped_review_reply]</title><text x="0" y="19" font-size="16" fill="#191b1b" >Scoped-review reply</text></svg><text x="300" y="1273" font-size="24" fill="#b73825" >10</text><text x="446" y="1273" font-size="24" fill="#b73825" >0</text><text x="592" y="1273" font-size="24" fill="#b73825" >0</text><text x="738" y="1273" font-size="24" fill="#b73825" >0</text><text x="884" y="1273" font-size="24" fill="#b73825" >0</text><text x="38" y="1297" font-size="11" fill="#636660" >2026-10-08T02:45:41.366Z</text><svg x="38" y="1322" width="244" height="43" viewBox="0 0 244 43" overflow="hidden"><title>Agent-harness reply [harness_feedback_reply]</title><text x="0" y="19" font-size="16" fill="#191b1b" >Agent-harness reply</text></svg><text x="300" y="1341" font-size="24" fill="#b73825" >9</text><text x="446" y="1341" font-size="24" fill="#b73825" >0</text><text x="592" y="1341" font-size="24" fill="#b73825" >0</text><text x="738" y="1341" font-size="24" fill="#b73825" >0</text><text x="884" y="1341" font-size="24" fill="#b73825" >0</text><text x="38" y="1365" font-size="11" fill="#636660" >2026-10-08T02:47:17.849Z</text><svg x="38" y="1390" width="244" height="43" viewBox="0 0 244 43" overflow="hidden"><title>Sample-source request [sample_source_request_reply]</title><text x="0" y="19" font-size="16" fill="#191b1b" >Sample-source request</text></svg><text x="300" y="1409" font-size="24" fill="#b73825" >20</text><text x="446" y="1409" font-size="24" fill="#b73825" >1</text><text x="592" y="1409" font-size="24" fill="#b73825" >0</text><text x="738" y="1409" font-size="24" fill="#b73825" >0</text><text x="884" y="1409" font-size="24" fill="#b73825" >0</text><text x="38" y="1433" font-size="11" fill="#636660" >2026-10-08T02:54:42.422Z</text><svg x="38" y="1458" width="244" height="43" viewBox="0 0 244 43" overflow="hidden"><title>Luna decisions reply [luna_decisions_advice_reply]</title><text x="0" y="19" font-size="16" fill="#191b1b" >Luna decisions reply</text></svg><text x="300" y="1477" font-size="24" fill="#b73825" >22</text><text x="446" y="1477" font-size="24" fill="#b73825" >1</text><text x="592" y="1477" font-size="24" fill="#b73825" >1</text><text x="738" y="1477" font-size="24" fill="#b73825" >0</text><text x="884" y="1477" font-size="24" fill="#b73825" >0</text><text x="38" y="1501" font-size="11" fill="#636660" >2026-10-08T03:09:22.675Z</text><svg x="38" y="1526" width="244" height="43" viewBox="0 0 244 43" overflow="hidden"><title>Keyframe delivery [annotated_keyframes_delivery]</title><text x="0" y="19" font-size="16" fill="#191b1b" >Keyframe delivery</text></svg><text x="300" y="1545" font-size="24" fill="#b73825" >20</text><text x="446" y="1545" font-size="24" fill="#b73825" >1</text><text x="592" y="1545" font-size="24" fill="#b73825" >0</text><text x="738" y="1545" font-size="24" fill="#b73825" >0</text><text x="884" y="1545" font-size="24" fill="#b73825" >0</text><text x="38" y="1569" font-size="11" fill="#636660" >2026-10-08T05:31:41.412Z</text><svg x="38" y="1594" width="244" height="43" viewBox="0 0 244 43" overflow="hidden"><title>Video delivery [annotated_video_delivery]</title><text x="0" y="19" font-size="16" fill="#191b1b" >Video delivery</text></svg><text x="300" y="1613" font-size="24" fill="#b73825" >30</text><text x="446" y="1613" font-size="24" fill="#b73825" >1</text><text x="592" y="1613" font-size="24" fill="#b73825" >1</text><text x="738" y="1613" font-size="24" fill="#b73825" >0</text><text x="884" y="1613" font-size="24" fill="#b73825" >0</text><text x="38" y="1637" font-size="11" fill="#636660" >2026-10-08T05:32:21.580Z</text><svg x="38" y="1662" width="244" height="43" viewBox="0 0 244 43" overflow="hidden"><title>Algorithm-source original [algorithm_source_original]</title><text x="0" y="19" font-size="16" fill="#191b1b" >Algorithm-source original</text></svg><text x="300" y="1681" font-size="24" fill="#b73825" >191</text><text x="446" y="1681" font-size="24" fill="#b73825" >0</text><text x="592" y="1681" font-size="24" fill="#b73825" >1</text><text x="738" y="1681" font-size="24" fill="#b73825" >0</text><text x="884" y="1681" font-size="24" fill="#b73825" >N/A</text><text x="38" y="1705" font-size="11" fill="#636660" >2026-10-08T06:31:22.023Z</text><svg x="38" y="1730" width="244" height="43" viewBox="0 0 244 43" overflow="hidden"><title>algorithm progress reply [algorithm_progress_reply]</title><text x="0" y="19" font-size="16" fill="#191b1b" >algorithm progress reply</text></svg><text x="300" y="1749" font-size="24" fill="#b73825" >1</text><text x="446" y="1749" font-size="24" fill="#b73825" >0</text><text x="592" y="1749" font-size="24" fill="#b73825" >0</text><text x="738" y="1749" font-size="24" fill="#b73825" >0</text><text x="884" y="1749" font-size="24" fill="#b73825" >0</text><text x="38" y="1773" font-size="11" fill="#636660" >2026-10-08T03:08:12.506Z</text><svg x="38" y="1798" width="244" height="43" viewBox="0 0 244 43" overflow="hidden"><title>model progress reply [model_progress_reply]</title><text x="0" y="19" font-size="16" fill="#191b1b" >model progress reply</text></svg><text x="300" y="1817" font-size="24" fill="#b73825" >7</text><text x="446" y="1817" font-size="24" fill="#b73825" >0</text><text x="592" y="1817" font-size="24" fill="#b73825" >0</text><text x="738" y="1817" font-size="24" fill="#b73825" >0</text><text x="884" y="1817" font-size="24" fill="#b73825" >0</text><text x="38" y="1841" font-size="11" fill="#636660" >2026-10-08T04:19:42.700Z</text><svg x="38" y="1866" width="244" height="43" viewBox="0 0 244 43" overflow="hidden"><title>backtest case original [backtest_case_original]</title><text x="0" y="19" font-size="16" fill="#191b1b" >backtest case original</text></svg><text x="300" y="1885" font-size="24" fill="#b73825" >26</text><text x="446" y="1885" font-size="24" fill="#b73825" >1</text><text x="592" y="1885" font-size="24" fill="#b73825" >0</text><text x="738" y="1885" font-size="24" fill="#b73825" >0</text><text x="884" y="1885" font-size="24" fill="#b73825" >0</text><text x="38" y="1909" font-size="11" fill="#636660" >2026-10-08T06:19:28.906Z</text><svg x="38" y="1934" width="244" height="43" viewBox="0 0 244 43" overflow="hidden"><title>handoff feedback response [handoff_feedback_response]</title><text x="0" y="19" font-size="16" fill="#191b1b" >handoff feedback</text><text x="0" y="39" font-size="16" fill="#191b1b" >response</text></svg><text x="300" y="1953" font-size="24" fill="#b73825" >3</text><text x="446" y="1953" font-size="24" fill="#b73825" >0</text><text x="592" y="1953" font-size="24" fill="#b73825" >0</text><text x="738" y="1953" font-size="24" fill="#b73825" >0</text><text x="884" y="1953" font-size="24" fill="#b73825" >0</text><text x="38" y="1997" font-size="11" fill="#636660" >2026-10-08T06:06:47.116Z</text><svg x="38" y="2022" width="244" height="43" viewBox="0 0 244 43" overflow="hidden"><title>repeatable video experiment reply [repeatable_video_experiment_reply]</title><text x="0" y="19" font-size="16" fill="#191b1b" >repeatable video</text><text x="0" y="39" font-size="16" fill="#191b1b" >experiment reply</text></svg><text x="300" y="2041" font-size="24" fill="#b73825" >19</text><text x="446" y="2041" font-size="24" fill="#b73825" >1</text><text x="592" y="2041" font-size="24" fill="#b73825" >1</text><text x="738" y="2041" font-size="24" fill="#b73825" >0</text><text x="884" y="2041" font-size="24" fill="#b73825" >N/A</text><text x="38" y="2085" font-size="11" fill="#636660" >2026-10-08T05:58:54.762Z</text><svg x="38" y="2110" width="244" height="43" viewBox="0 0 244 43" overflow="hidden"><title>quality reward progress reply [quality_reward_progress_reply]</title><text x="0" y="19" font-size="16" fill="#191b1b" >quality reward progress</text><text x="0" y="39" font-size="16" fill="#191b1b" >reply</text></svg><text x="300" y="2129" font-size="24" fill="#b73825" >1</text><text x="446" y="2129" font-size="24" fill="#b73825" >0</text><text x="592" y="2129" font-size="24" fill="#b73825" >0</text><text x="738" y="2129" font-size="24" fill="#b73825" >0</text><text x="884" y="2129" font-size="24" fill="#b73825" >0</text><text x="38" y="2173" font-size="11" fill="#636660" >2026-10-08T05:39:17.392Z</text><svg x="38" y="2198" width="244" height="43" viewBox="0 0 244 43" overflow="hidden"><title>learning transfer method reply [learning_transfer_method_reply]</title><text x="0" y="19" font-size="16" fill="#191b1b" >learning transfer method</text><text x="0" y="39" font-size="16" fill="#191b1b" >reply</text></svg><text x="300" y="2217" font-size="24" fill="#b73825" >1</text><text x="446" y="2217" font-size="24" fill="#b73825" >0</text><text x="592" y="2217" font-size="24" fill="#b73825" >0</text><text x="738" y="2217" font-size="24" fill="#b73825" >0</text><text x="884" y="2217" font-size="24" fill="#b73825" >0</text><text x="38" y="2261" font-size="11" fill="#636660" >2026-10-08T05:53:38.145Z</text><svg x="38" y="2286" width="244" height="43" viewBox="0 0 244 43" overflow="hidden"><title>fixed model prompt only reply [fixed_model_prompt_only_reply]</title><text x="0" y="19" font-size="16" fill="#191b1b" >fixed model prompt only</text><text x="0" y="39" font-size="16" fill="#191b1b" >reply</text></svg><text x="300" y="2305" font-size="24" fill="#b73825" >1</text><text x="446" y="2305" font-size="24" fill="#b73825" >0</text><text x="592" y="2305" font-size="24" fill="#b73825" >0</text><text x="738" y="2305" font-size="24" fill="#b73825" >0</text><text x="884" y="2305" font-size="24" fill="#b73825" >0</text><text x="38" y="2349" font-size="11" fill="#636660" >2026-10-08T05:58:54.762Z</text><svg x="38" y="2374" width="244" height="43" viewBox="0 0 244 43" overflow="hidden"><title>agent tool permissions reply [agent_tool_permissions_reply]</title><text x="0" y="19" font-size="16" fill="#191b1b" >agent tool permissions</text><text x="0" y="39" font-size="16" fill="#191b1b" >reply</text></svg><text x="300" y="2393" font-size="24" fill="#b73825" >1</text><text x="446" y="2393" font-size="24" fill="#b73825" >0</text><text x="592" y="2393" font-size="24" fill="#b73825" >0</text><text x="738" y="2393" font-size="24" fill="#b73825" >0</text><text x="884" y="2393" font-size="24" fill="#b73825" >0</text><text x="38" y="2437" font-size="11" fill="#636660" >2026-10-08T06:05:52.429Z</text><svg x="38" y="2462" width="244" height="43" viewBox="0 0 244 43" overflow="hidden"><title>post grouped validation reply [post_grouped_validation_reply]</title><text x="0" y="19" font-size="16" fill="#191b1b" >post grouped validation</text><text x="0" y="39" font-size="16" fill="#191b1b" >reply</text></svg><text x="300" y="2481" font-size="24" fill="#b73825" >1</text><text x="446" y="2481" font-size="24" fill="#b73825" >0</text><text x="592" y="2481" font-size="24" fill="#b73825" >0</text><text x="738" y="2481" font-size="24" fill="#b73825" >0</text><text x="884" y="2481" font-size="24" fill="#b73825" >0</text><text x="38" y="2525" font-size="11" fill="#636660" >2026-10-08T06:28:53.569Z</text><svg x="38" y="2550" width="244" height="43" viewBox="0 0 244 43" overflow="hidden"><title>measured progress update [measured_progress_update]</title><text x="0" y="19" font-size="16" fill="#191b1b" >measured progress</text><text x="0" y="39" font-size="16" fill="#191b1b" >update</text></svg><text x="300" y="2569" font-size="24" fill="#b73825" >1</text><text x="446" y="2569" font-size="24" fill="#b73825" >0</text><text x="592" y="2569" font-size="24" fill="#b73825" >0</text><text x="738" y="2569" font-size="24" fill="#b73825" >0</text><text x="884" y="2569" font-size="24" fill="#b73825" >0</text><text x="38" y="2613" font-size="11" fill="#636660" >2026-10-08T06:41:37.720Z</text><svg x="38" y="2638" width="244" height="43" viewBox="0 0 244 43" overflow="hidden"><title>voice segment blind comparison followup [voice_segment_blind_comparison_followup]</title><text x="0" y="19" font-size="16" fill="#191b1b" >voice segment blind</text><text x="0" y="39" font-size="16" fill="#191b1b" >comparison followup</text></svg><text x="300" y="2657" font-size="24" fill="#b73825" >1</text><text x="446" y="2657" font-size="24" fill="#b73825" >0</text><text x="592" y="2657" font-size="24" fill="#b73825" >0</text><text x="738" y="2657" font-size="24" fill="#b73825" >0</text><text x="884" y="2657" font-size="24" fill="#b73825" >0</text><text x="38" y="2701" font-size="11" fill="#636660" >2026-10-08T07:03:11.738Z</text><svg x="38" y="2726" width="244" height="43" viewBox="0 0 244 43" overflow="hidden"><title>strict declared group input validation original [strict_declared_group_input_validation_original]</title><text x="0" y="19" font-size="16" fill="#191b1b" >strict declared group</text><text x="0" y="39" font-size="16" fill="#191b1b" >input validation original</text></svg><text x="300" y="2745" font-size="24" fill="#b73825" >1</text><text x="446" y="2745" font-size="24" fill="#b73825" >0</text><text x="592" y="2745" font-size="24" fill="#b73825" >0</text><text x="738" y="2745" font-size="24" fill="#b73825" >0</text><text x="884" y="2745" font-size="24" fill="#b73825" >0</text><text x="38" y="2789" font-size="11" fill="#636660" >2026-10-08T07:24:20.681Z</text><svg x="38" y="2814" width="244" height="43" viewBox="0 0 244 43" overflow="hidden"><title>verified home target progress reply [verified_home_target_progress_reply]</title><text x="0" y="19" font-size="16" fill="#191b1b" >verified home target</text><text x="0" y="39" font-size="16" fill="#191b1b" >progress reply</text></svg><text x="300" y="2833" font-size="24" fill="#b73825" >1</text><text x="446" y="2833" font-size="24" fill="#b73825" >0</text><text x="592" y="2833" font-size="24" fill="#b73825" >0</text><text x="738" y="2833" font-size="24" fill="#b73825" >0</text><text x="884" y="2833" font-size="24" fill="#b73825" >0</text><text x="38" y="2877" font-size="11" fill="#636660" >2026-10-08T08:15:28.999Z</text><svg x="38" y="2902" width="244" height="43" viewBox="0 0 244 43" overflow="hidden"><title>heat model resource quote initial version [heat_model_resource_quote_initial_version]</title><text x="0" y="19" font-size="16" fill="#191b1b" >heat model resource</text><text x="0" y="39" font-size="16" fill="#191b1b" >quote initial version</text></svg><text x="300" y="2921" font-size="24" fill="#b73825" >2</text><text x="446" y="2921" font-size="24" fill="#b73825" >0</text><text x="592" y="2921" font-size="24" fill="#b73825" >0</text><text x="738" y="2921" font-size="24" fill="#b73825" >0</text><text x="884" y="2921" font-size="24" fill="#b73825" >0</text><text x="38" y="2965" font-size="11" fill="#636660" >2026-10-08T08:41:54.505Z</text><svg x="38" y="2990" width="244" height="43" viewBox="0 0 244 43" overflow="hidden"><title>heat model resource quote edited version [heat_model_resource_quote_edited_version]</title><text x="0" y="19" font-size="16" fill="#191b1b" >heat model resource</text><text x="0" y="39" font-size="16" fill="#191b1b" >quote edited version</text></svg><text x="300" y="3009" font-size="24" fill="#b73825" >2</text><text x="446" y="3009" font-size="24" fill="#b73825" >0</text><text x="592" y="3009" font-size="24" fill="#b73825" >0</text><text x="738" y="3009" font-size="24" fill="#b73825" >0</text><text x="884" y="3009" font-size="24" fill="#b73825" >0</text><text x="38" y="3053" font-size="11" fill="#636660" >2026-10-08T08:45:19.006Z</text><text x="38" y="3117" font-size="14" fill="#8b5520" >Public counters can include the account owner; independent endorsements are unknown.</text><text x="38" y="3145" font-size="14" fill="#454a48" >Each row retains its own X observation time; GitHub refreshes do not update it.</text></g></svg>
